HIERARCHY
ROOT Hips
{
	OFFSET 0.00000 0.00000 0.00000
	CHANNELS 6 Xposition Yposition Zposition Yrotation Zrotation Xrotation 
	JOINT Lumbar
	{
		OFFSET 0 0 0
		CHANNELS 3 Zrotation Xrotation Yrotation
		JOINT Neck
		{
			OFFSET 0.00 0.2701 0.00
			CHANNELS 3 Zrotation Xrotation Yrotation
			End Site
			{
				OFFSET 0.00 0.1379 0.00
			}
		}
		JOINT RightShoulder
		{
			OFFSET 0.0119 0.2289 0.1181
			CHANNELS 3 Zrotation Xrotation Yrotation
			JOINT RightElbow
			{
				OFFSET 0.00 -0.1475 0.00
				CHANNELS 2 Zrotation Yrotation
				JOINT RightWrist
				{
					OFFSET 0.00 -0.1605 0.00
					CHANNELS 2 Zrotation Xrotation
					End Site
					{
						OFFSET 0.0040 -0.1068 0.0006
					}
				}
			}
		}
		JOINT LeftShoulder
		{
			OFFSET 0.0119 0.2289 -0.1181
			CHANNELS 3 Zrotation Xrotation Yrotation
			JOINT LeftElbow
			{
				OFFSET 0.00 -0.1475 0.00
				CHANNELS 2 Zrotation Yrotation
				JOINT LeftWrist
				{
					OFFSET 0.00 -0.1605 0.00
					CHANNELS 2 Zrotation Xrotation
					End Site
					{
						OFFSET 0.0040 -0.1068 -0.0006
					}
				}
			}
		}
	}
	JOINT RightHip
	{
		OFFSET 0.0316 -0.0424 0.0458
		CHANNELS 3 Zrotation Xrotation Yrotation
		JOINT RightKnee
		{
			OFFSET 0.00 -0.2438 0.00
			CHANNELS 1 Zrotation
			JOINT RightAnkle
			{
				OFFSET 0.00 -0.2449 0.00
				CHANNELS 3 Zrotation Xrotation Yrotation
				End Site
				{
					OFFSET 0.1237 -0.0542 0.0051
				}
			}
		}
	}
	JOINT LeftHip
	{
		OFFSET 0.0316 -0.0424 -0.0458
		CHANNELS 3 Zrotation Xrotation Yrotation
		JOINT LeftKnee
		{
			OFFSET 0.00 -0.2438 0.00
			CHANNELS 1 Zrotation
			JOINT LeftAnkle
			{
				OFFSET 0.00 -0.2449 0.00
				CHANNELS 3 Zrotation Xrotation Yrotation
				End Site
				{
					OFFSET 0.1237 -0.0542 -0.0051
				}
			}
		}
	}
}
MOTION
Frames: 26
Frame Time: 0.02
-0 0.57926 0 184.11281 0 -3.06719 6.6339 4.31182 -4.09232 -8.93086 0.95174 -4.51464 8.69041 -9.46078 -6.91071 7.16449 78.93322 -2.23186 0.5647 23.9562 6.66189 -1.42339 13.91244 -83.68809 -6.26238 4.21473 -8.60336 7.44377 -4.59829 -3.35391 4.14841 -5.00282 -6.91284 -5.81662 1.64346 -11.17039 -3.71597 7.11233 5.18725 5.73238
0.00024 0.57926 -0.00011 183.7999 0 -3.1135 6.63209 4.26898 -4.06132 -9.13392 1.47785 -4.23206 8.66156 -10.01241 -6.01237 7.25908 78.93957 -2.31453 0.46145 23.18042 6.30066 -0.09288 13.23291 -83.425 -6.0737 3.92963 -8.53836 7.45292 -4.30196 -3.38698 4.12227 -4.98041 -6.89929 -5.83579 1.66941 -10.92086 -3.71016 7.1455 5.21786 5.78039
0.00048 0.57926 -0.00022 183.48839 0 -3.15964 6.63015 4.22647 -4.03075 -9.33669 2.00177 -3.95092 8.63281 -10.56184 -5.12212 7.35303 78.94518 -2.39683 0.35921 22.40365 5.94112 1.24624 12.55447 -83.1599 -5.88578 3.64497 -8.47367 7.46213 -4.00733 -3.41971 4.09608 -4.95806 -6.88553 -5.85479 1.69533 -10.67237 -3.70437 7.17845 5.24831 5.82816
0.00072 0.57925 -0.00034 183.17956 0 -3.20549 6.62786 4.18449 -4.00174 -9.53934 2.52256 -3.6728 8.60385 -11.10858 -4.24697 7.4462 78.94867 -2.47727 0.25929 21.61928 5.58524 2.59472 11.87276 -82.8895 -5.69728 3.35956 -8.41008 7.47162 -3.71803 -3.45081 4.06953 -4.93558 -6.86972 -5.87358 1.72129 -10.42499 -3.69842 7.21108 5.27827 5.87477
0.00097 0.57925 -0.00044 182.8567 0 -3.25282 6.62769 4.13927 -3.96465 -9.74147 3.06053 -3.37869 8.57564 -11.67051 -3.28136 7.54454 78.96442 -2.56613 0.14626 20.87986 5.21045 3.84773 11.20716 -82.65341 -5.50972 3.07843 -8.34128 7.47958 -3.40229 -3.48987 4.04504 -4.9136 -6.86336 -5.89381 1.74693 -10.17087 -3.69313 7.24571 5.31064 5.92661
0.00121 0.57925 -0.00056 182.56373 0 -3.29702 6.62284 4.10125 -3.94456 -9.94529 3.56123 -3.11867 8.54612 -12.1991 -2.51521 7.63116 78.95349 -2.63806 0.06161 20.04291 4.87573 5.33255 10.509 -82.34076 -5.3218 2.7883 -8.28313 7.49083 -3.14158 -3.51251 4.01612 -4.89069 -6.838 -5.91072 1.77327 -9.93186 -3.68658 7.27588 5.33798 5.96796
0.00144 0.57926 -0.00071 182.34919 0 -3.33305 6.60622 4.08025 -3.97349 -10.15304 3.97216 -2.94919 8.51 -12.6521 -2.2434 7.69217 78.87046 -2.65587 0.05076 18.93102 4.64951 7.26124 9.69098 -81.83885 -5.11538 2.46701 -8.25767 7.51135 -3.03965 -3.48486 3.97427 -4.86362 -6.75097 -5.92091 1.80192 -9.72638 -3.67482 7.29531 5.35133 5.97715
0.00167 0.57927 -0.00087 182.16541 0 -3.36587 6.58464 4.0671 -4.01912 -10.36293 4.34316 -2.81459 8.47311 -13.06861 -2.18636 7.74005 78.75913 -2.65829 0.06894 17.72117 4.46425 9.46221 8.84477 -81.2571 -4.91146 2.13789 -8.24235 7.53522 -2.99079 -3.44146 3.92793 -4.83588 -6.64754 -5.92736 1.83121 -9.53886 -3.66198 7.30976 5.35987 5.97772
0.00191 0.57927 -0.00103 181.96994 0 -3.39992 6.56458 4.05213 -4.056 -10.57247 4.72483 -2.66618 8.43842 -13.49206 -2.06326 7.78975 78.66088 -2.67215 0.07739 16.55744 4.26093 11.6689 8.02979 -80.6941 -4.71768 1.81548 -8.2202 7.55741 -2.9145 -3.40846 3.88417 -4.80948 -6.55602 -5.93391 1.86002 -9.34636 -3.65083 7.32575 5.37037 5.98253
0.00212 0.57928 -0.00118 181.76466 0 -3.43496 6.54765 4.02954 -4.09833 -10.77906 5.13943 -2.50924 8.39577 -13.95739 -1.79346 7.85744 78.56578 -2.6659 0.07309 15.38417 4.05389 13.32895 7.13684 -80.19653 -4.47682 1.47795 -8.20737 7.58007 -2.85682 -3.36191 3.83855 -4.77874 -6.44088 -5.94705 1.88975 -9.13459 -3.63501 7.34567 5.38081 5.98029
0.00239 0.57929 -0.00133 181.58736 0 -3.46714 6.52301 4.02498 -4.13257 -10.99266 5.47415 -2.37827 8.36974 -14.32525 -1.89734 7.88392 78.45228 -2.69957 0.0999 14.2112 3.86608 16.19216 6.40006 -79.55459 -4.334 1.17239 -8.17761 7.6028 -2.7672 -3.33968 3.79524 -4.75682 -6.37708 -5.94578 1.91757 -8.9746 -3.62818 7.35511 5.3915 5.99784
0.00284 0.57934 -0.00145 181.47743 0 -3.4925 6.47829 4.06578 -4.14628 -11.22223 5.61355 -2.3112 8.38833 -14.4468 -2.83597 7.80544 78.33801 -2.83237 0.2269 13.03131 3.70643 22.3033 6.09699 -78.43695 -4.46699 0.93621 -8.09791 7.62278 -2.6276 -3.38983 3.76367 -4.76029 -6.40546 -5.90361 1.94135 -8.88508 -3.65061 7.34684 5.39247 6.00606
0.00336 0.5794 -0.00156 181.39502 0 -3.51503 6.42593 4.12496 -4.1501 -11.45937 5.67088 -2.26906 8.42425 -14.46906 -4.17164 7.68501 78.19766 -3.0084 0.38123 11.86148 3.56766 29.61007 5.95288 -77.1927 -4.69773 0.73587 -8.0009 7.64307 -2.44575 -3.46479 3.73386 -4.77261 -6.49476 -5.84736 1.96302 -8.85641 -3.6814 7.32671 5.39546 6.04345
0.00384 0.57946 -0.00167 181.30155 0 -3.53872 6.37712 4.17728 -4.15464 -11.69485 5.75585 -2.21486 8.45285 -14.52755 -5.41854 7.57996 78.04157 -3.17471 0.50768 10.70716 3.42888 36.38385 5.73884 -76.07244 -4.87967 0.53339 -7.91236 7.66469 -2.24805 -3.52748 3.70036 -4.78018 -6.593 -5.79898 1.98464 -8.84882 -3.70559 7.30497 5.40586 6.11511
0.00432 0.57951 -0.00178 181.20306 0 -3.56294 6.32798 4.22338 -4.17596 -11.92268 5.8809 -2.16439 8.47789 -14.62185 -6.28017 7.48954 78.00294 -3.2996 0.69615 9.46259 3.25078 43.15329 5.51399 -74.67753 -5.0792 0.27292 -7.82186 7.68041 -2.19493 -3.5937 3.6786 -4.79034 -6.54148 -5.74457 2.01018 -8.64991 -3.74139 7.31103 5.38329 5.9997
0.00483 0.57957 -0.0019 181.12114 0 -3.5853 6.27756 4.28692 -4.15945 -12.16845 5.90262 -2.11233 8.51597 -14.61902 -8.04296 7.35946 77.71139 -3.51996 0.76689 8.41225 3.15993 50.17456 5.34989 -73.81476 -5.26652 0.13933 -7.73091 7.70818 -1.83656 -3.65882 3.63324 -4.79777 -6.80979 -5.69903 2.02748 -8.84642 -3.75522 7.25839 5.42699 6.26355
0.00537 0.57962 -0.00205 181.07843 0 -3.60411 6.22757 4.39227 -4.0435 -12.45988 5.66658 -2.04369 8.57323 -14.36782 -12.13264 7.12524 76.75185 -4.00475 0.45873 7.87526 3.29697 57.91608 5.31383 -74.54768 -5.38484 0.36925 -7.64531 7.77146 -0.59023 -3.71334 3.51938 -4.7907 -8.00284 -5.6849 2.01864 -10.27156 -3.70464 7.02947 5.67896 7.72057
0.00595 0.57968 -0.00221 181.05128 0 -3.62097 6.17619 4.51484 -3.88932 -12.76947 5.32814 -1.97369 8.6456 -14.02345 -17.1244 6.85366 75.5366 -4.58225 0.03893 7.53835 3.52254 65.80653 5.33374 -75.80404 -5.48914 0.72166 -7.55938 7.84634 0.95043 -3.76625 3.38243 -4.78135 -9.50387 -5.67952 2.00224 -12.06651 -3.63208 6.74486 5.99318 9.53207
0.00653 0.57974 -0.00236 181.01667 0 -3.63819 6.1241 4.63074 -3.75076 -13.07209 5.03191 -1.90795 8.71901 -13.7247 -21.74696 6.60234 74.41992 -5.1097 -0.29786 7.123 3.71236 73.42259 5.32868 -76.75748 -5.60791 1.00359 -7.47201 7.91442 2.32196 -3.82096 3.25779 -4.77633 -10.82862 -5.66795 1.99197 -13.58961 -3.57055 6.4973 6.26152 11.078
0.00706 0.57979 -0.00251 180.98456 0 -3.65764 6.0774 4.74245 -3.61901 -13.36959 4.75122 -1.82715 8.7587 -13.40812 -26.22002 6.33524 73.36746 -5.6714 -0.76631 6.65265 3.8833 81.96391 5.32706 -77.97723 -5.69787 1.34903 -7.39075 7.9892 3.84971 -3.87203 3.12496 -4.75816 -12.31426 -5.66545 1.97058 -15.54328 -3.50448 6.20077 6.60252 13.05642
0.00768 0.57985 -0.00268 180.95073 0 -3.6719 6.01927 4.8667 -3.46445 -13.68192 4.41471 -1.77781 8.87317 -13.1085 -31.20274 6.09327 72.13253 -6.18404 -0.99198 6.34749 4.11516 88.58444 5.32967 -78.77305 -5.84079 1.59116 -7.29691 8.05247 5.11457 -3.92993 3.00441 -4.76615 -13.53031 -5.64608 1.97016 -16.69935 -3.4431 5.99188 6.80902 14.22988
0.00856 0.57994 -0.00291 180.90665 0 -3.67337 5.92971 5.0216 -3.25335 -14.0309 3.95113 -1.80933 9.1802 -12.87318 -37.45763 5.92491 70.35544 -6.53074 -0.48059 6.42244 4.48699 89.96779 5.32816 -78.22914 -6.15393 1.51506 -7.16841 8.08396 5.64432 -4.00742 2.91671 -4.85197 -13.98901 -5.57979 2.03303 -15.45659 -3.39581 6.04988 6.61067 12.98938
0.00953 0.58003 -0.00317 180.86044 0 -3.66945 5.82875 5.18836 -3.0212 -14.39397 3.43483 -1.87373 9.56374 -12.65952 -44.1728 5.78425 68.42195 -6.82562 0.27151 6.66195 4.91863 89.38565 5.32859 -77.24845 -6.51657 1.33141 -7.02739 8.10306 5.8904 -4.09161 2.84315 -4.96325 -14.15685 -5.4958 2.11656 -13.41747 -3.35513 6.19613 6.27809 10.94558
0.01046 0.58012 -0.00342 180.81621 0 -3.66738 5.73318 5.34954 -2.80061 -14.75063 2.94191 -1.92697 9.91893 -12.4401 -50.62361 5.63434 66.62706 -7.14976 0.88748 6.84358 5.32656 89.63215 5.32866 -76.49575 -6.84256 1.19842 -6.89218 8.12585 6.2211 -4.17245 2.76784 -5.05951 -14.41276 -5.41902 2.18838 -11.81256 -3.31373 6.29445 6.01904 9.33828
0.01139 0.58022 -0.00365 180.7684 0 -3.66799 5.63673 5.51234 -2.5702 -15.10853 2.44831 -1.96373 10.24776 -12.20063 -57.35358 5.46905 64.54044 -7.45506 1.61246 6.96002 5.72116 90.16545 5.32848 -75.63825 -7.22774 1.06106 -6.75634 8.15677 6.73675 -4.25472 2.67305 -5.17013 -14.85324 -5.34677 2.26994 -9.91688 -3.26046 6.42317 5.7097 7.44309
0.01234 0.58031 -0.00393 180.72715 0 -3.66151 5.53934 5.67409 -2.35585 -15.46623 1.94435 -2.04324 10.64921 -12.00867 -63.58146 5.3428 63.02478 -7.78355 2.16901 7.24971 6.15879 89.62231 5.32869 -74.88661 -7.50173 0.90709 -6.61898 8.16825 6.8115 -4.3354 2.62116 -5.25707 -14.85182 -5.25989 2.33598 -8.43097 -3.2356 6.51109 5.47189 5.95053
